<?xml version="1.0" encoding="UTF-8"?>
<svg id="Ebene_2" data-name="Ebene 2" xmlns="http://www.w3.org/2000/svg" xmlns:xlink="http://www.w3.org/1999/xlink" viewBox="0 0 229.85 27.77" width="229.85" height="27.77">
  <defs>
    <style>
      .cls-1 {
        fill: url(#Unbenannter_Verlauf_438);
      }
    </style>
    <radialGradient id="Unbenannter_Verlauf_438" data-name="Unbenannter Verlauf 438" cx="114.92" cy="262.22" fx="114.92" fy="262.22" r="116.65" gradientTransform="translate(0 -248.33)" gradientUnits="userSpaceOnUse">
      <stop offset="0" stop-color="#3883c5"/>
      <stop offset=".46" stop-color="#56c2f0"/>
      <stop offset=".59" stop-color="#51beed"/>
      <stop offset=".74" stop-color="#44b3e7"/>
      <stop offset=".9" stop-color="#2ea2dc"/>
      <stop offset=".9" stop-color="#2ea2dc"/>
    </radialGradient>
  </defs>
  <g id="Ebene_1-2" data-name="Ebene 1">
    <g>
      <path class="cls-1" d="M14.93,27.77c-3.11,0-5.79-.57-8.03-1.71-2.24-1.14-3.95-2.75-5.13-4.83-1.18-2.08-1.77-4.53-1.77-7.35s.59-5.27,1.77-7.35c1.18-2.08,2.89-3.69,5.13-4.83,2.24-1.14,4.92-1.71,8.03-1.71s5.95.57,8.19,1.71c2.24,1.14,3.95,2.75,5.13,4.83,1.18,2.08,1.77,4.53,1.77,7.35s-.59,5.27-1.77,7.35c-1.18,2.08-2.89,3.69-5.13,4.83-2.24,1.14-4.97,1.71-8.19,1.71ZM14.93,20.53c1.82,0,3.25-.18,4.27-.54,1.02-.36,1.74-1.03,2.15-1.99.42-.97.62-2.33.62-4.11s-.21-3.17-.62-4.13c-.42-.95-1.13-1.61-2.15-1.97-1.02-.36-2.44-.54-4.27-.54s-3.23.18-4.23.54-1.68,1.02-2.07,1.97c-.39.95-.58,2.33-.58,4.13s.19,3.14.58,4.11c.39.97,1.08,1.63,2.07,1.99.99.36,2.4.54,4.23.54Z"/>
      <path class="cls-1" d="M50.11,27.37h-18.07V.4h17.15c1.96,0,3.58.25,4.87.74,1.29.5,2.25,1.23,2.9,2.19.64.97.97,2.16.97,3.58,0,1.72-.5,3.14-1.51,4.27-1.01,1.13-2.74,1.74-5.21,1.85v.4c2.71.11,4.72.74,6.02,1.89,1.3,1.15,1.95,2.67,1.95,4.55,0,1.5-.31,2.82-.93,3.94-.62,1.13-1.59,2-2.92,2.62-1.33.62-3.07.93-5.21.93ZM39.57,7.21v3.42h8.82c.78,0,1.3-.13,1.57-.38.27-.25.4-.69.4-1.31s-.17-1.06-.5-1.33c-.34-.27-.89-.4-1.67-.4h-8.61ZM39.57,16.83v3.74h9.58c.91,0,1.54-.13,1.87-.38.34-.25.5-.76.5-1.51s-.16-1.25-.48-1.49c-.32-.24-.95-.36-1.89-.36h-9.58Z"/>
      <path class="cls-1" d="M68.35,27.37h-7.57V.4h7.57v26.97ZM84.73,7.21h-21.9V.4h21.9v6.8ZM84.13,17.19h-21.29v-6.76h21.29v6.76ZM84.73,27.37h-21.9v-6.8h21.9v6.8Z"/>
      <path class="cls-1" d="M94.43,27.37h-7.57V.4h15.74c2.39,0,4.39.32,6,.97,1.61.64,2.82,1.58,3.64,2.8.82,1.22,1.23,2.72,1.23,4.49,0,1.42-.25,2.65-.75,3.68-.5,1.03-1.28,1.87-2.35,2.5-1.07.63-2.47,1.05-4.19,1.27v.4c1.39.35,2.39.87,3,1.55.6.68,1.16,1.54,1.67,2.56l3.34,6.76h-8.73l-3.22-6.6c-.32-.67-.66-1.19-1.01-1.57-.35-.38-.81-.64-1.37-.79-.56-.15-1.34-.22-2.33-.22h-3.1v9.18ZM94.43,7.21v5.35h8.09c1.1,0,1.88-.16,2.33-.48.46-.32.68-1.06.68-2.21,0-1.07-.23-1.78-.68-2.13-.46-.35-1.24-.52-2.33-.52h-8.09Z"/>
      <path class="cls-1" d="M133.48,27.37h-18.07V.4h17.15c1.96,0,3.58.25,4.87.74,1.29.5,2.25,1.23,2.9,2.19.64.97.97,2.16.97,3.58,0,1.72-.5,3.14-1.51,4.27-1.01,1.13-2.74,1.74-5.21,1.85v.4c2.71.11,4.72.74,6.02,1.89,1.3,1.15,1.95,2.67,1.95,4.55,0,1.5-.31,2.82-.93,3.94-.62,1.13-1.59,2-2.92,2.62-1.33.62-3.07.93-5.21.93ZM122.93,7.21v3.42h8.82c.78,0,1.3-.13,1.57-.38.27-.25.4-.69.4-1.31s-.17-1.06-.5-1.33c-.34-.27-.89-.4-1.67-.4h-8.61ZM122.93,16.83v3.74h9.58c.91,0,1.54-.13,1.87-.38.34-.25.5-.76.5-1.51s-.16-1.25-.48-1.49-.95-.36-1.89-.36h-9.58Z"/>
      <path class="cls-1" d="M151.71,27.37h-7.57V.4h7.57v26.97ZM168.1,7.21h-21.9V.4h21.9v6.8ZM167.49,17.19h-21.29v-6.76h21.29v6.76ZM168.1,27.37h-21.9v-6.8h21.9v6.8Z"/>
      <path class="cls-1" d="M184.72,27.77c-3.11,0-5.78-.57-8.01-1.71-2.23-1.14-3.93-2.75-5.11-4.83-1.18-2.08-1.77-4.53-1.77-7.35s.59-5.27,1.77-7.35c1.18-2.08,2.88-3.69,5.11-4.83,2.23-1.14,4.9-1.71,8.01-1.71s5.63.46,7.79,1.37c2.16.91,3.82,2.23,4.97,3.94,1.15,1.72,1.73,3.78,1.73,6.2v.68h-8.45v-.68c0-1.53-.43-2.62-1.29-3.28-.86-.66-2.4-.99-4.63-.99-1.83,0-3.24.18-4.25.54-1.01.36-1.71,1.02-2.11,1.97-.4.95-.6,2.33-.6,4.13s.2,3.14.6,4.11c.4.97,1.11,1.63,2.11,1.99,1.01.36,2.42.54,4.25.54,2.23,0,3.77-.33,4.63-.99.86-.66,1.29-1.75,1.29-3.28v-.68h8.45v.68c0,2.39-.58,4.45-1.73,6.18-1.15,1.73-2.81,3.05-4.97,3.96-2.16.91-4.76,1.37-7.79,1.37Z"/>
      <path class="cls-1" d="M208.79,27.37h-7.57V.4h7.57v26.97ZM229.64,27.37h-9.06l-6.28-9.58h-7.73v-7.37h7.65l6.56-10.02h9.06l-9.34,13.24,9.14,13.73Z"/>
    </g>
  </g>
</svg>